<svg id="say-hello-v3" viewBox="0 0 119 83" version="1.1" xmlns="http://www.w3.org/2000/svg" xmlns:xlink="http://www.w3.org/1999/xlink" xml:space="preserve" >
	<g id="say">
		<path d="M11.12,0c2.627,-0.169 5.169,0.993 6.76,3.09l-2.52,2.38c-1.043,-1.415 -2.735,-2.21 -4.49,-2.11c-1.66,0 -2.79,0.61 -2.79,1.67c0,1.26 1.36,1.56 4,2.14c2.89,0.65 5.78,1.5 5.78,5.23c0,3.73 -2.82,5.4 -6.9,5.4c-3.23,0 -6.12,-1.05 -7.54,-3.43l2.51,-2.41c1.05,1.77 3.06,2.52 5.27,2.52c1.73,0 2.92,-0.54 2.92,-1.83c0,-1.29 -1.22,-1.63 -3.77,-2.17c-2.55,-0.54 -6,-1.53 -6,-5.27c0.01,-3.21 2.56,-5.21 6.77,-5.21Z" />
		<path d="M28.65,0c4.79,0 7.1,2.28 7.1,6.63l0,10.77l-3.67,0l0,-2.35c-1.21,1.771 -3.258,2.79 -5.4,2.69c-3.53,0 -5.74,-2.21 -5.74,-5.27c0,-3.06 2.31,-5 5.44,-5.27l4.72,-0.48c0.71,-0.07 1,-0.31 1,-0.78l0,-0.36c0,-1.33 -1.12,-2.24 -3.36,-2.24c-2.07,0 -3.81,0.75 -4.32,2.62l-3,-1.87c0.88,-2.51 3.29,-4.09 7.23,-4.09Zm3.43,9.55l-4.89,0.61c-1.67,0.2 -2.45,1.09 -2.45,2.21c0,1.29 1,2.17 2.79,2.17c0.102,0.007 0.204,0.011 0.307,0.011c2.241,0 4.117,-1.773 4.243,-4.011l0,-0.99Z" />
		<path d="M40.79,24.19l4.18,-9.14l-7.31,-14.65l4.35,0l4.89,10.4l4.76,-10.4l3.91,0l-10.87,23.79l-3.91,0Z"/>
	</g>
	<g id="hello">
		<path d="M83.36,52.58c-3.29,-0.15 -5.71,-4 -7.55,-6.43c-0.6,-0.8 -1.17,-1.63 -1.73,-2.47c1.702,-5.358 2.324,-11 1.83,-16.6c-0.31,-4 -2.61,-8.5 -6.19,-8.3c-3,0.16 -5.27,2.72 -5.53,7c-0.24,3.87 1.39,12.85 5.49,18.86c-0.41,1.39 -0.82,2.75 -1.19,4.07c-1.23,4.29 -4.71,14.08 -9.85,12.59c0.27,-0.75 0.48,-1.28 0.72,-2c1.08,-3.17 2.51,-7.47 1,-10.75c-2.47,-5.49 -9.83,-3.44 -11.54,1.48c-1.63,4.67 0.74,9.92 4.55,12.9c-0.22,0.47 -0.44,0.94 -0.68,1.4c-0.43,0.85 -0.85,1.77 -1.36,2.56c-2.23,3.53 -3.66,0.25 -4.81,-2c-1.15,-2.25 -2.24,-4.73 -3.56,-7c-1.8,-3 -4.61,-5.89 -8.44,-4.92c-4.13,1 -5.85,5.85 -7,9.46c-0.566,1.761 -1.027,3.554 -1.38,5.37c-1,-4.28 -1.94,-8.55 -2.83,-12.85l-0.41,-2l0.34,-0.69c2.1,-4.47 8.55,-17.13 2.35,-21.05c-2.246,-1.349 -5.157,-0.929 -6.93,1c-2.52,2.87 -2,7.82 -1.55,11.28c0.37,3 0.87,5.95 1.43,8.9c-0.807,1.6 -1.65,3.18 -2.53,4.74c-4.48,7.91 -9.28,15.61 -15.48,22.29c-1.81,2 1.33,4.63 3.14,2.68c6.366,-7.025 11.813,-14.831 16.21,-23.23c1.57,7.14 3.35,14.24 4.69,21.41c0.39,2.08 3.87,2.75 4.09,0.23c0.305,-4.748 0.973,-9.465 2,-14.11c0.505,-2.542 1.399,-4.99 2.65,-7.26c3.11,-4.89 5.71,-0.08 7.26,2.92c2.32,4.51 6.48,15.88 13,8.82c1.533,-1.794 2.771,-3.819 3.67,-6c3.325,1.221 7.079,0.291 9.45,-2.34c3.23,-3.42 4.81,-8.57 6,-13.35c2.66,3.61 5.85,7 9.92,7.56c10.43,1.36 13,-9.76 11.43,-16.92c3.509,0.762 7.155,0.614 10.59,-0.43c7.69,-2.31 13.62,-9.25 10.89,-17.42c2,-4.28 1,-9.67 -1.67,-14.15c-1.37,-2.28 -4.76,0.08 -3.39,2.36c1.27,2.12 2.38,4.5 2.25,6.94c-2.58,-3.74 -8.63,-4.71 -11.62,-0.53c-4.46,6.21 2.93,13.79 9.14,10.65c0.629,-0.322 1.23,-0.693 1.8,-1.11c0,6.14 -6.62,9.48 -12.05,10c-2.19,0.21 -4.4,-0.035 -6.49,-0.72c-0.29,-1.83 -0.61,-3.64 -1,-5.44c-0.63,-3.34 -1.56,-6.71 -3.73,-9.5c-2.53,-3.26 -7.27,-3.83 -9.54,-0.36c-3,4.62 2,11.82 5.53,15c1.495,1.343 3.18,2.459 5,3.31c0.44,4.15 1.69,14.5 -6.39,14.15Zm-62.07,-16.54c0.79,-1.66 2,-1.87 2.51,0c0.71,2.81 -1.15,7.06 -2.24,9.73c-0.19,-1.28 -0.37,-2.55 -0.49,-3.83c-0.14,-1.74 -0.54,-4.36 0.23,-5.93l-0.01,0.03Zm31.84,14.72c0.86,-1.22 2.58,-2.15 3.57,-0.39c0.63,1.11 -0.14,3.66 -0.42,4.82c-0.307,1.256 -0.691,2.492 -1.15,3.7c-1.55,-1.95 -3.63,-5.81 -1.99,-8.16l-0.01,0.03Zm15.79,-18.44c-0.3,-1.21 -1.8,-8.33 0.48,-9.11c2,-0.68 2.45,3.46 2.63,4.77c0.381,3.595 0.117,7.228 -0.78,10.73c-0.995,-2.053 -1.773,-4.205 -2.32,-6.42l-0.01,0.03Zm17.73,-1.06c-1.28,-1.27 -6.18,-7.06 -3.58,-8.86c3.53,-2.44 5.46,8.72 5.68,10l0.14,0.78c-0.79,-0.591 -1.532,-1.243 -2.22,-1.95l-0.02,0.03Zm17.93,-8.74c-2.06,-3.14 1.68,-5 3.8,-4.09c1.167,0.726 2.05,1.831 2.5,3.13c-1.66,2.02 -4.52,3.65 -6.29,0.94l-0.01,0.02Z" />
	</g>
	<g id="spickel">
		<path d="M101.99,71.34l0,-3.7c6.935,-0.011 12.639,-5.715 12.65,-12.65l3.72,0c-0.011,8.973 -7.397,16.35 -16.37,16.35l0,0Z"/>
	</g>
</svg>
