<svg xmlns="http://www.w3.org/2000/svg" viewBox="0 0 118.35 82.84"><defs><style>.cls-1{fill:#1d1d1b}</style></defs><g id="say"><path class="cls-1" d="M239.76 385.42a7.85 7.85 0 0 1 6.76 3.09l-2.52 2.38a5.21 5.21 0 0 0-4.49-2.11c-1.66 0-2.79.61-2.79 1.67 0 1.26 1.36 1.56 4 2.14 2.89.65 5.78 1.5 5.78 5.23s-2.82 5.4-6.9 5.4c-3.23 0-6.12-1.05-7.54-3.43l2.51-2.41c1.05 1.77 3.06 2.52 5.27 2.52 1.73 0 2.92-.54 2.92-1.83s-1.22-1.63-3.77-2.17-6-1.53-6-5.27c.01-3.21 2.56-5.21 6.77-5.21ZM257.29 385.42c4.79 0 7.1 2.28 7.1 6.63v10.77h-3.67v-2.35a6.19 6.19 0 0 1-5.4 2.69c-3.53 0-5.74-2.21-5.74-5.27s2.31-5 5.44-5.27l4.72-.48c.71-.07 1-.31 1-.78V391c0-1.33-1.12-2.24-3.36-2.24-2.07 0-3.81.75-4.32 2.62l-3-1.87c.88-2.51 3.29-4.09 7.23-4.09Zm3.43 9.55-4.89.61c-1.67.2-2.45 1.09-2.45 2.21 0 1.29 1 2.17 2.79 2.17a4.25 4.25 0 0 0 4.55-4ZM269.43 409.61l4.18-9.14-7.31-14.65h4.35l4.89 10.4 4.76-10.4h3.91l-10.87 23.79ZM330.63 456.76v-3.7a12.67 12.67 0 0 0 12.65-12.65H347a16.37 16.37 0 0 1-16.37 16.35Z" transform="translate(-228.64 -385.42)"/></g><path class="cls-1" d="M312 438c-3.29-.15-5.71-4-7.55-6.43-.6-.8-1.17-1.63-1.73-2.47a42.5 42.5 0 0 0 1.83-16.6c-.31-4-2.61-8.5-6.19-8.3-3 .16-5.27 2.72-5.53 7-.24 3.87 1.39 12.85 5.49 18.86-.41 1.39-.82 2.75-1.19 4.07-1.23 4.29-4.71 14.08-9.85 12.59.27-.75.48-1.28.72-2 1.08-3.17 2.51-7.47 1-10.75-2.47-5.49-9.83-3.44-11.54 1.48-1.63 4.67.74 9.92 4.55 12.9-.22.47-.44.94-.68 1.4-.43.85-.85 1.77-1.36 2.56-2.23 3.53-3.66.25-4.81-2s-2.24-4.73-3.56-7c-1.8-3-4.61-5.89-8.44-4.92-4.13 1-5.85 5.85-7 9.46a46.67 46.67 0 0 0-1.38 5.37c-1-4.28-1.94-8.55-2.83-12.85l-.41-2 .34-.69c2.1-4.47 8.55-17.13 2.35-21.05a5.54 5.54 0 0 0-6.93 1c-2.52 2.87-2 7.82-1.55 11.28.37 3 .87 5.95 1.43 8.9q-1.21 2.4-2.53 4.74c-4.48 7.91-9.28 15.61-15.48 22.29-1.81 2 1.33 4.63 3.14 2.68a111.83 111.83 0 0 0 16.21-23.23c1.57 7.14 3.35 14.24 4.69 21.41.39 2.08 3.87 2.75 4.09.23a92.94 92.94 0 0 1 2-14.11 25.24 25.24 0 0 1 2.65-7.26c3.11-4.89 5.71-.08 7.26 2.92 2.32 4.51 6.48 15.88 13 8.82a22.33 22.33 0 0 0 3.67-6 8.69 8.69 0 0 0 9.45-2.34c3.23-3.42 4.81-8.57 6-13.35 2.66 3.61 5.85 7 9.92 7.56 10.43 1.36 13-9.76 11.43-16.92a21.06 21.06 0 0 0 10.59-.43c7.69-2.31 13.62-9.25 10.89-17.42 2-4.28 1-9.67-1.67-14.15-1.37-2.28-4.76.08-3.39 2.36 1.27 2.12 2.38 4.5 2.25 6.94-2.58-3.74-8.63-4.71-11.62-.53-4.46 6.21 2.93 13.79 9.14 10.65a13.27 13.27 0 0 0 1.8-1.11c0 6.14-6.62 9.48-12.05 10a15.94 15.94 0 0 1-6.49-.72c-.29-1.83-.61-3.64-1-5.44-.63-3.34-1.56-6.71-3.73-9.5-2.53-3.26-7.27-3.83-9.54-.36-3 4.62 2 11.82 5.53 15a20.42 20.42 0 0 0 5 3.31c.44 4.15 1.69 14.5-6.39 14.15Zm-62.07-16.54c.79-1.66 2-1.87 2.51 0 .71 2.81-1.15 7.06-2.24 9.73-.19-1.28-.37-2.55-.49-3.83-.14-1.74-.54-4.36.23-5.93Zm31.84 14.72c.86-1.22 2.58-2.15 3.57-.39.63 1.11-.14 3.66-.42 4.82a31.3 31.3 0 0 1-1.15 3.7c-1.55-1.95-3.63-5.81-1.99-8.16Zm15.79-18.44c-.3-1.21-1.8-8.33.48-9.11 2-.68 2.45 3.46 2.63 4.77a30.36 30.36 0 0 1-.78 10.73 32.66 32.66 0 0 1-2.32-6.42Zm17.73-1.06c-1.28-1.27-6.18-7.06-3.58-8.86 3.53-2.44 5.46 8.72 5.68 10l.14.78a18.82 18.82 0 0 1-2.22-1.95Zm17.93-8.74c-2.06-3.14 1.68-5 3.8-4.09a6 6 0 0 1 2.5 3.13c-1.66 2.02-4.52 3.65-6.29.94Z" transform="translate(-228.64 -385.42)" id="_3" data-name="3"/></svg>